{"title":"Caça Fantasmas 2016 HD-TS Legendado x264 AC3-PEISR","uid":15527880,"size":520868865,"categoryP":"video","categoryS":"movies","magnet":"?xt=urn:btih:72face43e21b427768794a1159772c55428de88a&amp;dn=Ca%26ccedil%3Ba+Fantasmas+2016+HD-TS+Legendado+x264+AC3-PEISR&amp;tr=udp%3A%2F%2Ftracker.leechers-paradise.org%3A6969&amp;tr=udp%3A%2F%2Fzer0day.ch%3A1337&amp;tr=udp%3A%2F%2Fopen.demonii.com%3A1337&amp;tr=udp%3A%2F%2Ftracker.coppersurfer.tk%3A6969&amp;tr=udp%3A%2F%2Fexodus.desync.com%3A6969","seeders":6,"leechers":1,"uploader":"VitorPIRA","files":3,"time":1470795794,"description":"http://imu.gr/images/2016/08/08/ghostbusters_ver8.jpg\r\n\r\n \nhttp://www.imdb.com/title/tt1289401/\r\n\r\n\r\nTrinta anos depois do sucesso do clássico, &quot;Caça-Fantasmas&quot; está de volta e revitalizado para a nova geração. O diretor Paul Feig combina todos os elementos paranormais que tornaram a franquia tão amada, com um elenco de novos personagens, interpretados pelos atores mais divertidos dessa geração. \r\n\r\n\r\nVideo\r\nID                                       : 1\r\nFormat                                   : AVC\r\nFormat/Info                              : Advanced Video Codec\r\nFormat profile                           :   \r\nFormat settings, CABAC                   : Yes\r\nFormat settings, ReFrames                : 4 frames\r\nCodec ID                                 : V_MPEG4/ISO/AVC\r\nDuration                                 : 1 h 55 min\r\nBit rate                                 : 429 kb/s\r\nWidth                                    : 736 pixels\r\nHeight                                   : 352 pixels\r\nDisplay aspect ratio                     : 2.091\r\nFrame rate mode                          : Constant\r\nFrame rate                               : 29.970 (30000/1001) FPS\r\nColor space                              : YUV\r\nChroma subsampling                       : 4:2:0\r\nBit depth                                : 8 bits\r\nScan type                                : Progressive\r\nBits/(Pixel*Frame)                       : 0.055\r\nStream size                              : 355 MiB (71%)\r\nDefault                                  : Yes\r\nForced                                   : No\r\n\r\nAudio\r\nID                                       : 2\r\nFormat                                   : AC-3\r\nFormat/Info                              : Audio Coding 3\r\nMode extension                           : CM (complete main)\r\nFormat settings, Endianness              : Big\r\nCodec ID                                 : A_AC3\r\nDuration                                 : 1 h 55 min\r\nBit rate mode                            : Constant\r\nBit rate                                 : 160 kb/s\r\nChannel(s)                               : 2 channels\r\nChannel positions                        : Front: L R\r\nSampling rate                            : 48.0 kHz\r\nFrame rate                               : 31.250 FPS (1536 spf)\r\nCompression mode                         : Lossy\r\nDelay relative to video                  : -5 ms\r\nStream size                              : 132 MiB (27%)\r\nTitle                                    : Ingl├¬s 2.0\r\nDefault                                  : Yes\r\nForced                                   : No\r\n\r\n \nhttp://imu.gr/images/2016/08/07/scene00151d8874.png\r\n \nhttp://imu.gr/images/2016/08/07/scene0030104474.png\r\n \nhttp://imu.gr/images/2016/08/07/scene002011ba53.png\r\n \nhttp://imu.gr/images/2016/08/07/scene004518e652.png\r\n \nhttp://imu.gr/images/2016/08/07/scene00501.png\r\n \nhttp://imu.gr/images/2016/08/07/scene006513f84b.png\r\n \nhttp://imu.gr/images/2016/08/08/scene00701.png\r\n \nhttp://imu.gr/images/2016/08/08/scene0095106555.png","torrent":{"xt":"urn:btih:72face43e21b427768794a1159772c55428de88a","amp;dn":"Ca%26ccedil%3Ba+Fantasmas+2016+HD-TS+Legendado+x264+AC3-PEISR","amp;tr":["udp%3A%2F%2Ftracker.leechers-paradise.org%3A6969","udp%3A%2F%2Fzer0day.ch%3A1337","udp%3A%2F%2Fopen.demonii.com%3A1337","udp%3A%2F%2Ftracker.coppersurfer.tk%3A6969","udp%3A%2F%2Fexodus.desync.com%3A6969"],"infoHash":"72face43e21b427768794a1159772c55428de88a","infoHashBuffer":{"type":"Buffer","data":[114,250,206,67,226,27,66,119,104,121,74,17,89,119,44,85,66,141,232,138]},"announce":[],"urlList":[]}}